# This file uses meters as units for non-parametric coordinates.

mtllib BlankLevelV1.mtl
g default
v -3500.000488 99.999512 2500.000488
v -3053.853027 593.770874 2500.000488
v -3053.853027 4635.127930 2500.000488
v 3053.853027 4635.127930 2500.000488
v 3053.853027 593.770874 2500.000488
v 3500.000488 99.999512 2500.000488
v 3500.000488 5100.000488 2500.000488
v -3500.000488 5100.000488 2500.000488
v -3500.000488 99.999512 -2500.000488
v -3500.000488 5100.000488 -2500.000488
v 3500.000488 99.999512 -2500.000488
v 3500.000488 5100.000488 -2500.000488
v -3053.853027 593.770874 -2500.000488
v 3053.853027 593.770874 -2500.000488
v 3053.853027 4635.127930 -2500.000488
v -3053.853027 4635.127930 -2500.000488
vt -10.314782 4.398510
vt -4.992435 4.398510
vt -4.992435 9.720859
vt -10.314782 9.720859
vt -4.850803 9.720859
vt -4.850803 4.398510
vt 0.471544 4.398510
vt 0.471544 9.720859
vt 4.910843 4.398510
vt 4.910843 9.720859
vt 0.608941 9.720859
vt 0.608941 4.398510
vt 5.052920 10.670675
vt 5.052920 5.348328
vt 9.354821 5.348328
vt 9.354821 10.670675
vt 5.931290 -2.276317
vt 0.608941 -2.276317
vt 0.608941 -9.727604
vt 5.931290 -9.727604
vt 5.992435 -2.189637
vt 11.314783 -2.189637
vt 11.314783 5.261649
vt 5.992435 5.261649
vt 5.859202 4.311831
vt 0.536852 4.311831
vt 0.536852 -2.189637
vt 5.859202 -2.189637
vt -4.918730 4.311831
vt -4.918730 -2.189637
vt 0.403619 -2.189637
vt 0.403619 4.311831
vt -10.314782 -2.276317
vt -10.314782 -9.727604
vt -4.992435 -9.727604
vt -4.992435 -2.276317
vt -9.789179 -2.751225
vt -5.487278 -2.751225
vt -5.487278 -9.252694
vt -9.789179 -9.252694
vt 0.471544 -2.276317
vt -4.850803 -2.276317
vt -4.850803 -9.727604
vt 0.471544 -9.727604
vt -0.054060 -2.751225
vt -0.054060 -9.252694
vt -4.355962 -9.252694
vt -4.355962 -2.751225
vn 0.000000 0.000000 1.000000
vn 0.000000 0.000000 1.000000
vn 0.000000 0.000000 1.000000
vn 0.000000 0.000000 1.000000
vn 0.000000 0.000000 1.000000
vn 0.000000 0.000000 1.000000
vn 0.000000 0.000000 1.000000
vn 0.000000 0.000000 1.000000
vn 0.000000 0.000000 -1.000000
vn 0.000000 0.000000 -1.000000
vn 0.000000 0.000000 -1.000000
vn 0.000000 0.000000 -1.000000
vn -0.000000 0.000000 -1.000000
vn 0.000000 0.000000 -1.000000
vn -0.000000 0.000000 -1.000000
vn 0.000000 0.000000 -1.000000
vn -1.000000 0.000000 0.000000
vn -1.000000 0.000000 0.000000
vn -1.000000 0.000000 0.000000
vn -1.000000 0.000000 0.000000
vn 0.000000 -1.000000 0.000000
vn 0.000000 -1.000000 0.000000
vn 0.000000 -1.000000 0.000000
vn 0.000000 -1.000000 0.000000
vn 1.000000 0.000000 0.000000
vn 1.000000 0.000000 0.000000
vn 1.000000 0.000000 0.000000
vn 1.000000 0.000000 0.000000
vn 0.000000 1.000000 0.000000
vn 0.000000 1.000000 0.000000
vn 0.000000 1.000000 0.000000
vn 0.000000 1.000000 0.000000
vn 0.000000 -1.000000 0.000000
vn 0.000000 -1.000000 0.000000
vn 0.000000 -1.000000 0.000000
vn 0.000000 -1.000000 0.000000
vn -1.000000 0.000000 0.000000
vn -1.000000 0.000000 0.000000
vn -1.000000 0.000000 0.000000
vn -1.000000 0.000000 0.000000
vn 1.000000 0.000000 0.000000
vn 1.000000 0.000000 0.000000
vn 1.000000 0.000000 0.000000
vn 1.000000 0.000000 0.000000
vn -0.000000 1.000000 -0.000000
vn -0.000000 1.000000 -0.000000
vn -0.000000 1.000000 -0.000000
vn -0.000000 1.000000 -0.000000
s 1
g polySurface1
usemtl aiStandardSurface1SG
f 1/33/1 2/37/2 8/36/3
f 2/37/2 3/38/4 8/36/3
f 8/36/3 3/38/4 7/35/5
f 3/38/4 4/39/6 7/35/5
f 7/35/5 4/39/6 6/34/7
f 4/39/6 5/40/8 6/34/7
f 1/33/1 6/34/7 2/37/2
f 5/40/8 2/37/2 6/34/7
s 2
f 9/41/9 10/42/10 13/45/11
f 13/45/11 10/42/10 16/48/12
f 10/42/10 12/43/13 16/48/12
f 16/48/12 12/43/13 15/47/14
f 12/43/13 11/44/15 15/47/14
f 15/47/14 11/44/15 14/46/16
f 9/41/9 13/45/11 11/44/15
f 13/45/11 14/46/16 11/44/15
s 3
f 1/1/17 8/2/18 9/4/19
f 9/4/19 8/2/18 10/3/20
s 4
f 1/17/21 9/18/22 6/20/23
f 6/20/23 9/18/22 11/19/24
s 5
f 6/5/25 11/6/26 7/8/27
f 7/8/27 11/6/26 12/7/28
s 6
f 7/21/29 12/22/30 8/24/31
f 8/24/31 12/22/30 10/23/32
s 7
f 3/25/33 16/26/34 4/28/35
f 4/28/35 16/26/34 15/27/36
s 8
f 4/9/37 15/10/38 5/12/39
f 5/12/39 15/10/38 14/11/40
s 9
f 2/13/41 13/14/42 3/16/43
f 3/16/43 13/14/42 16/15/44
s 10
f 2/29/45 5/30/46 13/32/47
f 13/32/47 5/30/46 14/31/48
